<svg xmlns="http://www.w3.org/2000/svg" xmlns:xlink="http://www.w3.org/1999/xlink" width="146.411" height="135.519" viewBox="0 0 146.411 135.519">
  <defs>
    <linearGradient id="linear-gradient" y1="0.5" x2="1" y2="0.5" gradientUnits="objectBoundingBox">
      <stop offset="0" stop-color="#ededed"/>
      <stop offset="0.185" stop-color="#e8e8e8"/>
      <stop offset="0.387" stop-color="#dbdbdb"/>
      <stop offset="0.596" stop-color="#c5c5c5"/>
      <stop offset="0.81" stop-color="#a7a7a7"/>
      <stop offset="1" stop-color="#868686"/>
    </linearGradient>
    <linearGradient id="linear-gradient-4" x1="25.568" y1="0.5" x2="26.568" y2="0.5" gradientUnits="objectBoundingBox">
      <stop offset="0" stop-color="#d7d8dd"/>
      <stop offset="0.25" stop-color="#ebecef"/>
      <stop offset="0.75" stop-color="#aeaeb4"/>
      <stop offset="1" stop-color="#d7d8dd"/>
    </linearGradient>
    <linearGradient id="linear-gradient-5" x1="0" y1="0.5" x2="1" y2="0.5" xlink:href="#linear-gradient-4"/>
  </defs>
  <g id="Grupo_503" data-name="Grupo 503" transform="translate(-750.037 -171.437)">
    <g id="Capa_2" data-name="Capa 2" transform="translate(750.037 171.437)">
      <path id="Trazado_260" data-name="Trazado 260" d="M816.095,293.375s-24.595,3.4-27.212-3.14-2.354,6.279-13.344,5.233-10.728-10.727-9.943-12.3-12.036,4.709-14.652-4.71,1.046-15.176,3.14-17.007.523-10.728-1.57-12.3-3.587-16.048,14.652-20.147c7.075-1.59-3.14.262-3.14-13.082s12.559-15.7,13.605-15.437,11.774-27.473,29.043-27.735S822.9,175.9,822.9,175.9s3.925-4.71,12.3-4.448,23.549,13.344,26.426,25.38,13.606,6.28,14.129,13.867-3.4,8.634-3.14,10.2,11.219-.74,12.821,15.7c.209,2.14,10.466-2.878,10.989,10.2s-6.8,12.3-6.8,12.3,4.448,16.745-7.588,20.408-12.821,7.064-26.165,7.85S816.095,293.375,816.095,293.375Z" transform="translate(-750.037 -171.437)" fill="#050505"/>
    </g>
    <path id="Trazado_261" data-name="Trazado 261" d="M916.795,485.276c-.041,6.265-19.559,11.22-43.6,11.062s-43.49-5.373-43.447-11.635,19.558-11.219,43.6-11.06S916.835,479.012,916.795,485.276Z" transform="translate(-51.259 -194.321)" fill="#1a1a1a" stroke="#f2f2f2" stroke-miterlimit="10" stroke-width="1"/>
    <path id="Trazado_262" data-name="Trazado 262" d="M920.981,461.639c-.037,5.629-17.694,10.07-39.435,9.929s-39.343-4.819-39.3-10.443,17.694-10.078,39.437-9.934S921.015,456.014,920.981,461.639Z" transform="translate(-59.289 -179.884)" stroke="#1d1e1c" stroke-miterlimit="10" stroke-width="2.525" fill="url(#linear-gradient)"/>
    <path id="Trazado_263" data-name="Trazado 263" d="M873.568,519.592c-20.891-.135-39.03-3.808-43.21-8.953a5.5,5.5,0,0,0-.43,2.292c-.043,6.269,19.411,11.47,43.446,11.632s43.554-4.79,43.595-11.059a3.782,3.782,0,0,0-.953-2.4C911.5,516.1,894.2,519.732,873.568,519.592Z" transform="translate(-51.371 -218.112)" fill="#1a1a1a" stroke="#f2f2f2" stroke-miterlimit="10" stroke-width="1"/>
    <path id="Trazado_264" data-name="Trazado 264" d="M878.978,486.129c-19.293-.124-35.379-3.777-39.235-8.527a3.587,3.587,0,0,0-1.061,2.376c-.039,5.786,17.921,10.594,40.117,10.74s40.212-4.424,40.25-10.211a3.472,3.472,0,0,0-.881-2.21C914,482.905,898.026,486.257,878.978,486.129Z" transform="translate(-57 -196.869)" stroke="#1d1e1c" stroke-miterlimit="10" stroke-width="2.525" fill="url(#linear-gradient)"/>
    <path id="Trazado_265" data-name="Trazado 265" d="M852.9,470.687H827.487s-1.518,0-1.138,2.88a2.864,2.864,0,0,0,3.035,2.674s.189,2.88,2.086,4.115,4.363,0,4.363,0-1.708,1.44.758,3.908,4.363.824,4.363.824-.95,3.291,1.9,3.908a6.916,6.916,0,0,0,5.311-1.44s0,3.7,4.742,3.908,7.777-3.908,7.777-3.908,2.086,5.348,7.4,5.143a12.542,12.542,0,0,0,8.535-4.115s-.759,2.88,6.638,2.469,6.07-3.5,6.07-3.5,0,2.88,4.362,2.468a4.6,4.6,0,0,0,4.363-4.526,6.631,6.631,0,0,0,7.208,0c3.6-2.469,3.224-3.8,3.224-3.8s1.9,1.541,5.5-1.339,0-4.937,0-4.937.569,1.852,2.656-1.44-2.656-3.292-2.656-3.292H852.9Z" transform="translate(-49.031 -192.422)" fill="#fff" stroke="#1a1a1a" stroke-miterlimit="10" stroke-width="1.171"/>
    <path id="Trazado_266" data-name="Trazado 266" d="M850.79,459.954H825.374s-1.518,0-1.138,2.88a2.863,2.863,0,0,0,3.035,2.674s.189,2.881,2.086,4.115,4.363,0,4.363,0-1.708,1.44.758,3.908,4.363.824,4.363.824-.949,3.291,1.9,3.908a6.917,6.917,0,0,0,5.311-1.44s0,3.7,4.742,3.908,7.777-3.908,7.777-3.908,2.086,5.348,7.4,5.143a12.54,12.54,0,0,0,8.535-4.115s-.759,2.879,6.638,2.469,6.07-3.5,6.07-3.5,0,2.88,4.362,2.469a4.6,4.6,0,0,0,4.363-4.526,6.63,6.63,0,0,0,7.208,0c3.6-2.469,3.224-3.8,3.224-3.8s1.9,1.54,5.5-1.34,0-4.937,0-4.937.569,1.852,2.656-1.44-2.656-3.292-2.656-3.292H850.79Z" transform="translate(-47.672 -185.521)" fill="#fff" stroke="#1a1a1a" stroke-miterlimit="10" stroke-width="1.171"/>
    <path id="Trazado_267" data-name="Trazado 267" d="M913.063,261.274l-12.8,65.257s-19.641,18.874-54.559.7L829.928,261.75s17.3-11.644,44.685-11.424C886.631,250.423,891.63,250.661,913.063,261.274Z" transform="translate(-51.371 -50.725)" stroke="#1d1e1c" stroke-miterlimit="10" stroke-width="2.525" fill="url(#linear-gradient)"/>
    <path id="Trazado_268" data-name="Trazado 268" d="M913.81,441.709s24.3,9.394,26.667-4.134" transform="translate(-105.308 -171.131)" fill="none" stroke="#1d1e1c" stroke-miterlimit="10" stroke-width="2.347"/>
    <g id="Grupo_260" data-name="Grupo 260" transform="translate(801.855 208.655)">
      <g id="Grupo_254" data-name="Grupo 254" transform="translate(0 11.423)">
        <g id="Grupo_251" data-name="Grupo 251" transform="translate(31.847 0.219)" opacity="0.3">
          <path id="Trazado_269" data-name="Trazado 269" d="M990.389,333.188c2.827-8.164,2.852-18.281-2.9-24.884,6,1,10.081,8.721,9.191,17.591-.879,8.76-6.292,15.454-12.28,15.416C987.054,339.568,989.182,336.207,990.389,333.188Z" transform="translate(-984.402 -308.304)" fill="url(#linear-gradient-4)"/>
        </g>
        <g id="Grupo_253" data-name="Grupo 253">
          <path id="Trazado_270" data-name="Trazado 270" d="M929.7,307.731c-5.437-.545-10.534,4.543-12.4,11.838-1.962-7.045-6.958-11.9-12.278-11.371-6.278.631-10.628,8.539-9.712,17.663s6.748,16.01,13.026,15.38c4.279-.429,7.659-4.237,9.09-9.505,1.5,5.026,4.805,8.624,8.956,9.04,6.28.63,12.112-6.255,13.028-15.38S935.98,308.362,929.7,307.731Z" transform="translate(-895.191 -307.691)" fill="#fff" stroke="#393b41" stroke-miterlimit="10" stroke-width="1"/>
          <g id="Grupo_252" data-name="Grupo 252" transform="translate(0.097 0.571)" opacity="0.3">
            <path id="Trazado_271" data-name="Trazado 271" d="M902.223,334.176c-2.825-8.164-2.852-18.281,2.9-24.884-6,1-10.433,8.722-9.542,17.591.879,8.76,6.645,15.454,12.633,15.416C905.559,340.557,903.431,337.2,902.223,334.176Z" transform="translate(-895.464 -309.292)" fill="url(#linear-gradient-5)"/>
          </g>
        </g>
      </g>
      <g id="Grupo_255" data-name="Grupo 255" transform="translate(1.184)">
        <path id="Trazado_272" data-name="Trazado 272" d="M909.236,275.693l1.8,3.6a24.255,24.255,0,0,0-12.526,9.184S899.628,276.533,909.236,275.693Z" transform="translate(-898.508 -275.693)" fill="#050505"/>
      </g>
      <g id="Grupo_256" data-name="Grupo 256" transform="translate(27.089 0.746)">
        <path id="Trazado_273" data-name="Trazado 273" d="M972.406,277.784l-1.334,3.731s6.221,1.394,9.822,5.877C980.894,287.392,980.943,280.121,972.406,277.784Z" transform="translate(-971.072 -277.784)" fill="#050505"/>
      </g>
      <g id="Grupo_259" data-name="Grupo 259" transform="translate(14.663 24.264)">
        <g id="Grupo_257" data-name="Grupo 257">
          <path id="Trazado_274" data-name="Trazado 274" d="M942.411,347.9c0,2.339-1.375,4.234-3.071,4.234s-3.075-1.895-3.075-4.234,1.377-4.234,3.075-4.234S942.411,345.558,942.411,347.9Z" transform="translate(-936.265 -343.662)" fill="#1a1a1a"/>
          <path id="Trazado_275" data-name="Trazado 275" d="M942.109,347.778c0,.93-.546,1.682-1.218,1.682s-1.223-.752-1.223-1.682.546-1.682,1.223-1.682S942.109,346.85,942.109,347.778Z" transform="translate(-938.453 -345.227)" fill="#fff"/>
        </g>
        <g id="Grupo_258" data-name="Grupo 258" transform="translate(9.224)">
          <path id="Trazado_276" data-name="Trazado 276" d="M968.247,347.9c0,2.339-1.377,4.234-3.073,4.234s-3.071-1.895-3.071-4.234,1.376-4.234,3.071-4.234S968.247,345.558,968.247,347.9Z" transform="translate(-962.103 -343.662)" fill="#1a1a1a"/>
          <path id="Trazado_277" data-name="Trazado 277" d="M967.941,347.778c0,.93-.545,1.682-1.219,1.682s-1.221-.752-1.221-1.682.546-1.682,1.221-1.682S967.941,346.85,967.941,347.778Z" transform="translate(-964.287 -345.227)" fill="#fff"/>
        </g>
      </g>
    </g>
    <path id="Trazado_278" data-name="Trazado 278" d="M933.277,407.94,918.8,402.948l-14.783,3.991-6.754-5.37,4.61,11.721,16.8-6.748,16.3,7.881,5.4-11.378Z" transform="translate(-94.669 -147.978)" fill="#050505"/>
    <path id="Trazado_279" data-name="Trazado 279" d="M932.03,463.406s1.65,1.911,7.886,1.659,7.493-1.659,7.493-1.659l-7.69,11.661Z" transform="translate(-117.024 -187.741)" fill="#050505"/>
    <g id="Capa_3" data-name="Capa 3" transform="translate(775.37 190.915)">
      <path id="Trazado_280" data-name="Trazado 280" d="M826.421,255.381s33.908-11.788,39.675-19.862c0,0,38.158,24.284,42.8,19.643s.816-12.92.816-12.92l-24.178-14.458L855.985,226l-27.131,3.748L821,248.312Z" transform="translate(-821 -226)" fill="#050505"/>
    </g>
  </g>
</svg>
